<svg xmlns="http://www.w3.org/2000/svg" xmlns:xlink="http://www.w3.org/1999/xlink" aria-hidden="true" role="img" class="iconify iconify--logos" width="31.88" height="32" preserveAspectRatio="xMidYMid meet" viewBox="0 0 256 257"><defs><linearGradient id="IconifyId1813088fe1fbc01fb466" x1="-.828%" x2="57.636%" y1="7.652%" y2="78.411%"><stop offset="0%" stop-color="#41D1FF"></stop><stop offset="100%" stop-color="#BD34FE"></stop></linearGradient><linearGradient id="IconifyId1813088fe1fbc01fb467" x1="43.376%" x2="50.316%" y1="2.242%" y2="89.03%"><stop offset="0%" stop-color="#FFEA83"></stop><stop offset="8.333%" stop-color="#FFDD35"></stop><stop offset="100%" stop-color="#FFA800"></stop></linearGradient></defs><path fill="url(#IconifyId1813088fe1fbc01fb466)" d="M255.153 37.938L134.897 252.976c-2.483 4.44-8.862 4.466-11.382.048L.875 37.958c-2.746-4.814 1.371-10.646 6.827-9.67l120.385 21.517a6.537 6.537 0 0 0 2.322-.004l117.867-21.483c5.438-.991 9.666 4.796 6.877 9.62Z"></path><path fill="url(#IconifyId1813088fe1fbc01fb467)" d="M185.432.063L96.44 17.501a3.268 3.268 0 0 0-2.634 3.014l-5.53 94.192a3.268 3.268 0 0 0 3.997 3.378l24.777-5.718c2.318-.535 4.413 1.507 3.936 3.838l-7.81 33.c-.495 2.212 1.88 4.051 3.957 2.916l21.054-13.995c1.715-1.14 4.006.192 3.995 2.262l-.023 19.549a3.268 3.268 0 0 0 3.269 3.269c.177 0 .354-.007.529-.022l50.885-3.253c2.54-.163 4.423-2.71 3.737-5.15l-21.995-78.04c-.704-2.498 1.507-4.817 3.997-3.378l24.777 5.718c2.318.535 4.413-1.507 3.936-3.838l-7.81-33.549c-.495-2.212 1.88-4.051 3.957-2.916l21.054 13.995c1.715 1.14 4.006-.192 3.995-2.262l-.023-19.549a3.268 3.268 0 0 0-3.269-3.269c-.177 0-.354.007-.529.022l-50.885 3.253c-2.54.163-4.423 2.71-3.737 5.15l21.995 78.04c.704 2.498-1.507 4.817-3.997 3.378l-24.777-5.718c-2.318-.535-4.413 1.507-3.936 3.838l7.81 33.549c.495 2.212-1.88 4.051-3.957 2.916l-21.054-13.995c-1.715-1.14-4.006.192-3.995 2.262l.023 19.549a3.268 3.268 0 0 1-3.269 3.269c-.177 0-.354-.007-.529-.022l-50.885-3.253c-2.54-.163-4.423-2.71-3.737-5.15l21.995-78.04c.704-2.498-1.507-4.817-3.997-3.378l-24.777 5.718c-2.318.535-4.413-1.507-3.936-3.838l7.81-33.549c.495-2.212-1.88-4.051-3.957-2.916l-21.054 13.995c-1.715 1.14-4.006-.192-3.995-2.262l.023-19.549a3.268 3.268 0 0 1 3.269-3.269c.177 0 .354.007.529.022l50.885 3.253c2.54.163 4.423-2.71 3.737-5.15L185.432.063Z"></path></svg>


